

LYRICS-

I'm gona give it to you tonight
I'm gona give it to you tonight
I'm gona give it to you tonight
Tonight, tonight, tonight, yeah

You must be a comedian, oh
This must be your stand up routine
Girl, I can't take you serious, no, no
Did you think that you were getting off that easy?

When your body's calling me
Like a moth to the flame, oh
And I can tell that you wanting me
And shorty, I feel the same
So you ain't going nowhere

Did you think I was letting you go, oh, tonight?
Did you think I was letting your body outer my sight?
Wanna do some real crazy things with you, I wanna try
You're about get it, girl, you're about to get it tonight

Oh, tonight, oh, tonight, oh
Girl, you're about to get it tonight
Oh, tonight, oh, tonight, oh
Girl, you're about to get it tonight

I bet you thought you was teasing me, no, no
I didn't know all along you was playing my games
Did you think that chick could shake it in front of me, girl?
And I wouldn't at least demand a taste

'Cause you got my mouth watering
And your body's what I crave, yeah
And I won't stop till you let me in
And I hear you scream my name
I ain't going nowhere

Did you think I was letting you go, oh, tonight?
Did you think I was letting your body outer my sight?
Wanna do some real crazy things with you, I wanna try
You're about get it, girl, you're about to get it tonight

Oh, tonight, oh, tonight, oh
Girl, you're about to get it tonight
Oh, tonight, oh, tonight, oh
Girl, you're about to get it tonight

Close the door, turn off the lights
Let me kiss your neck down to your thighs
You ain't going nowhere till the morning light
I'm gonna make you mine tonight

Did you think I was letting you go, oh, tonight?
Did you think I was letting your body outer my sight?
Wanna do some real crazy things with you, I wanna try
You're about get it, girl, you're about to get it tonight

Oh, tonight, oh, tonight, oh
Girl, you're about to get it tonight
Oh, tonight, oh, tonight, oh
Girl, you're about to get it tonight

I'm gona give it to you tonight, oh
I'm gona give it to you tonight, oh
I'm gona give it to you tonight
Tonight, tonight, tonight, yeah

SCREENSHOTS-







MEDIA INFO-

General
Complete name                    : Jay.Sean-.Tonight.avi
Format                           : AVI
Format/Info                      : Audio Video Interleave
File size                        : 46.9 MiB
Duration                         : 3mn 39s
Overall bit rate                 : 1 794 Kbps
Writing application              : VirtualDubMod 1.5.10.3 | www.virtualdub-fr.org || (build 2550/release)
Writing library                  : VirtualDubMod build 2550/release                

Video
ID                               : 0
Format                           : MPEG-4 Visual
Format profile                   : Advanced Simple@L5
Format settings, BVOP            : Yes
Format settings, QPel            : No
Format settings, GMC             : No warppoints
Format settings, Matrix          : Default (MPEG)
Muxing mode                      : Packed bitstream
Codec ID                         : XVID
Codec ID/Hint                    : XviD
Duration                         : 3mn 39s
Bit rate                         : 1 594 Kbps
Width                            : 688 pixels
Height                           : 344 pixels
Display aspect ratio             : 2.000
Frame rate                       : 25.000 fps
Color space                      : YUV
Chroma subsampling               : 4:2:0
Bit depth                        : 8 bits
Scan type                        : Progressive
Bits/(Pixel*Frame)               : 0.269
Stream size                      : 41.7 MiB (89%)
Writing library                  : XviD 1.2.1 (UTC 2008-12-04)

Audio
ID                               : 1
Format                           : MPEG Audio
Format version                   : Version 1
Format profile                   : Layer 3
Mode                             : Joint stereo
Mode extension                   : MS Stereo
Codec ID                         : 55
Codec ID/Hint                    : MP3
Duration                         : 3mn 39s
Bit rate mode                    : Variable
Bit rate                         : 192 Kbps
Channel(s)                       : 2 channels
Sampling rate                    : 48.0 KHz
Stream size                      : 4.86 MiB (10%)
Alignment                        : Aligned on interleaves
Interleave, duration             : 24 ms (0.60 video frame)
Interleave, preload duration     : 247 ms
Writing library                  : LAME3.98r
Encoding settings                : -m j -V 4 -q 3 -lowpass 18.6 --abr 192




ENJOY-